# Blender v3.2.0 Beta OBJ File: 'becoming_hex_tiles2.blend'
# www.blender.org
mtllib tile_011_110.mtl
o tile_011_110_Cylinder.059
v 0.000000 -0.500000 -1.000000
v 0.866025 -0.500000 0.500000
v 0.866025 0.500000 0.500000
v -0.866025 0.500000 0.500000
v 0.433013 -0.500000 -0.250000
v 0.433013 0.500000 -0.250000
v -0.000000 -0.500000 0.500000
v 0.000000 0.500000 0.500000
v -0.433013 -0.500000 -0.250000
v -0.433013 0.500000 -0.250000
v 0.000000 0.000000 -1.000000
v -0.000000 0.500000 -0.000000
v 0.866025 0.000000 0.500000
v -0.866025 0.000000 0.500000
v -0.433013 0.000000 -0.250000
v -0.000000 -0.500000 -0.000000
v 0.433013 0.000000 -0.250000
v -0.000000 0.000000 0.500000
v -0.000000 0.000000 -0.000000
vt 0.828125 0.750000
vt 0.828125 1.000000
vt 0.671875 1.000000
vt 0.671875 0.750000
vt 0.500000 0.750000
vt 0.500000 1.000000
vt 0.328125 1.000000
vt 0.328125 0.750000
vt 0.171875 0.500000
vt 0.171875 0.750000
vt -0.000000 0.750000
vt -0.000000 0.500000
vt 0.750000 0.111398
vt 0.750000 0.231398
vt 0.853923 0.291398
vt 0.957846 0.111398
vt 0.171875 1.000000
vt 0.250000 0.111398
vt 0.457846 0.111398
vt 0.353923 0.291398
vt 0.250000 0.231398
vt 0.671875 0.500000
vt 0.500000 0.500000
vt 0.146077 0.291398
vt 0.042154 0.111398
vt 0.828125 0.500000
vt 0.646077 0.291398
vt 0.750000 0.471398
vt 1.000000 0.500000
vt 1.000000 0.750000
vt 0.828125 0.750000
vt 0.828125 0.500000
vt 0.671875 0.500000
vt 0.671875 0.750000
vt 0.828125 1.000000
vt 0.671875 1.000000
vt 1.000000 1.000000
vt 1.000000 0.750000
vt 0.501903 0.331241
vt 0.501903 0.450996
vt 0.709323 0.450996
vt 0.605613 0.271364
vt 0.398193 0.271364
vt 0.501903 0.091733
vn 0.8660 0.0000 -0.5000
vn -0.0000 0.0000 1.0000
vn -0.8660 0.0000 -0.5000
vn 0.0000 -1.0000 -0.0000
vn 0.0000 1.0000 0.0000
vn -0.5000 0.0000 0.8660
vn -1.0000 0.0000 -0.0000
vn 0.5000 -0.0000 -0.8660
vn -0.5000 0.0000 -0.8660
usemtl None
s off
f 17/1/1 6/2/1 3/3/1 13/4/1
f 18/5/2 8/6/2 4/7/2 14/8/2
f 9/9/3 15/10/3 11/11/3 1/12/3
f 7/13/4 16/14/4 5/15/4 2/16/4
f 14/8/3 4/7/3 10/17/3 15/10/3
f 13/4/2 3/3/2 8/6/2 18/5/2
f 8/18/5 3/19/5 6/20/5 12/21/5
f 2/22/2 13/4/2 18/5/2 7/23/2
f 8/18/5 12/21/5 10/24/5 4/25/5
f 5/26/1 17/1/1 13/4/1 2/22/1
f 9/27/4 1/28/4 5/15/4 16/14/4
f 1/29/1 11/30/1 17/1/1 5/26/1
f 15/31/6 9/32/6 16/33/6 19/34/6
f 19/34/7 16/33/7 7/23/7 18/5/7
f 10/35/8 12/36/8 19/34/8 15/31/8
f 12/37/9 6/2/9 17/1/9 19/38/9
f 19/39/4 18/40/4 14/41/4 15/42/4
f 15/42/5 19/39/5 17/43/5 11/44/5
