# Blender v3.2.0 Beta OBJ File: 'becoming_hex_tiles2.blend'
# www.blender.org
mtllib tile_111_101.mtl
o tile_111_101_Cylinder.061
v 0.000000 -0.500000 -1.000000
v 0.000000 0.500000 -1.000000
v 0.866025 -0.500000 0.500000
v -0.866025 -0.500000 0.500000
v -0.866025 0.500000 0.500000
v 0.433013 -0.500000 -0.250000
v 0.433013 0.500000 -0.250000
v -0.000000 -0.500000 0.500000
v 0.000000 0.500000 0.500000
v -0.433013 -0.500000 -0.250000
v -0.433013 0.500000 -0.250000
v 0.000000 0.000000 -1.000000
v -0.000000 0.500000 -0.000000
v 0.866025 0.000000 0.500000
v -0.866025 0.000000 0.500000
v -0.433013 0.000000 -0.250000
v -0.000000 -0.500000 -0.000000
v 0.433013 0.000000 -0.250000
v -0.000000 0.000000 0.500000
v -0.000000 0.000000 -0.000000
vt 0.500000 0.750000
vt 0.500000 1.000000
vt 0.328125 1.000000
vt 0.328125 0.750000
vt 0.171875 0.500000
vt 0.171875 0.750000
vt -0.000000 0.750000
vt -0.000000 0.500000
vt 0.171875 1.000000
vt -0.000000 1.000000
vt 0.750000 0.111398
vt 0.750000 0.231398
vt 0.853923 0.291398
vt 0.957846 0.111398
vt 0.500000 0.500000
vt 0.328125 0.500000
vt 0.146077 0.291398
vt 0.250000 0.231398
vt 0.353923 0.291398
vt 0.250000 0.471398
vt 1.000000 0.750000
vt 1.000000 1.000000
vt 0.828125 1.000000
vt 0.828125 0.750000
vt 0.671875 0.500000
vt 0.671875 0.750000
vt 0.250000 0.111398
vt 0.042154 0.111398
vt 0.828125 0.500000
vt 0.646077 0.291398
vt 0.750000 0.471398
vt 0.542154 0.111398
vt 1.000000 0.500000
vt 0.671875 1.000000
vt 0.671875 0.750000
vt 1.000000 1.000000
vt 1.000000 0.750000
vt 0.398193 0.271364
vt 0.501903 0.331241
vt 0.501903 0.450996
vt 0.294482 0.450996
vn -0.0000 0.0000 1.0000
vn -0.8660 0.0000 -0.5000
vn 0.0000 -1.0000 -0.0000
vn 0.0000 1.0000 -0.0000
vn 0.8660 -0.0000 -0.5000
vn 1.0000 -0.0000 -0.0000
vn 0.5000 -0.0000 0.8660
usemtl None
s off
f 19/1/1 9/2/1 5/3/1 15/4/1
f 10/5/2 16/6/2 12/7/2 1/8/2
f 16/6/2 11/9/2 2/10/2 12/7/2
f 8/11/3 17/12/3 6/13/3 3/14/3
f 15/4/2 5/3/2 11/9/2 16/6/2
f 8/15/1 19/1/1 15/4/1 4/16/1
f 11/17/4 13/18/4 7/19/4 2/20/4
f 12/21/5 2/22/5 7/23/5 18/24/5
f 4/16/2 15/4/2 16/6/2 10/5/2
f 3/25/1 14/26/1 19/1/1 8/15/1
f 9/27/4 13/18/4 11/17/4 5/28/4
f 6/29/5 18/24/5 14/26/5 3/25/5
f 10/30/3 1/31/3 6/13/3 17/12/3
f 10/30/3 17/12/3 8/11/3 4/32/3
f 1/33/5 12/21/5 18/24/5 6/29/5
f 13/34/6 9/2/6 19/1/6 20/35/6
f 13/36/7 20/37/7 18/24/7 7/23/7
f 18/38/4 20/39/4 19/40/4 14/41/4
