# Blender v3.2.0 Beta OBJ File: 'becoming_hex_tiles2.blend'
# www.blender.org
mtllib tile_110_110.mtl
o tile_110_110_Cylinder.051
v 0.866025 -0.500000 0.500000
v 0.866025 0.500000 0.500000
v -0.866025 -0.500000 0.500000
v -0.866025 0.500000 0.500000
v 0.433013 -0.500000 -0.250000
v 0.433013 0.500000 -0.250000
v -0.000000 -0.500000 0.500000
v 0.000000 0.500000 0.500000
v -0.433013 -0.500000 -0.250000
v -0.433013 0.500000 -0.250000
v -0.000000 0.500000 -0.000000
v 0.866025 0.000000 0.500000
v -0.866025 0.000000 0.500000
v -0.433013 0.000000 -0.250000
v -0.000000 -0.500000 -0.000000
v 0.433013 0.000000 -0.250000
v -0.000000 0.000000 0.500000
v -0.000000 0.000000 -0.000000
vt 0.828125 0.750000
vt 0.828125 1.000000
vt 0.671875 1.000000
vt 0.671875 0.750000
vt 0.500000 0.750000
vt 0.500000 1.000000
vt 0.328125 1.000000
vt 0.328125 0.750000
vt 0.750000 0.111398
vt 0.750000 0.231398
vt 0.853923 0.291398
vt 0.957846 0.111398
vt 0.171875 1.000000
vt 0.171875 0.750000
vt 0.500000 0.500000
vt 0.328125 0.500000
vt 0.171875 0.500000
vt 0.250000 0.111398
vt 0.457846 0.111398
vt 0.353923 0.291398
vt 0.250000 0.231398
vt 0.671875 0.500000
vt 0.146077 0.291398
vt 0.042154 0.111398
vt 0.828125 0.500000
vt 0.646077 0.291398
vt 0.542154 0.111398
vt 0.828125 0.750000
vt 0.671875 0.750000
vt 0.671875 0.500000
vt 0.828125 0.500000
vt 1.000000 0.500000
vt 1.000000 0.750000
vt 0.828125 1.000000
vt 0.671875 1.000000
vt 1.000000 1.000000
vn 0.8660 0.0000 -0.5000
vn -0.0000 0.0000 1.0000
vn 0.0000 -1.0000 -0.0000
vn -0.8660 0.0000 -0.5000
vn 0.0000 1.0000 0.0000
vn 0.5000 -0.0000 -0.8660
vn -0.5000 0.0000 -0.8660
usemtl None
s off
f 16/1/1 6/2/1 2/3/1 12/4/1
f 17/5/2 8/6/2 4/7/2 13/8/2
f 7/9/3 15/10/3 5/11/3 1/12/3
f 13/8/4 4/7/4 10/13/4 14/14/4
f 7/15/2 17/5/2 13/8/2 3/16/2
f 12/4/2 2/3/2 8/6/2 17/5/2
f 3/16/4 13/8/4 14/14/4 9/17/4
f 8/18/5 2/19/5 6/20/5 11/21/5
f 1/22/2 12/4/2 17/5/2 7/15/2
f 8/18/5 11/21/5 10/23/5 4/24/5
f 5/25/1 16/1/1 12/4/1 1/22/1
f 9/26/3 15/10/3 7/9/3 3/27/3
f 14/28/6 18/29/6 15/30/6 9/31/6
f 16/1/7 5/25/7 15/32/7 18/33/7
f 10/34/6 11/35/6 18/29/6 14/28/6
f 11/36/7 6/2/7 16/1/7 18/33/7
