# Blender v3.2.0 Beta OBJ File: 'becoming_hex_tiles2.blend'
# www.blender.org
mtllib tile_000_001.mtl
o tile_000_001_Cylinder.007
v 0.000000 0.500000 -1.000000
v 0.433013 0.500000 -0.250000
v -0.433013 0.500000 -0.250000
v 0.000000 0.000000 -1.000000
v -0.000000 0.500000 -0.000000
v -0.433013 0.000000 -0.250000
v 0.433013 0.000000 -0.250000
v -0.000000 0.000000 -0.000000
vt 0.171875 0.750000
vt 0.171875 1.000000
vt -0.000000 1.000000
vt -0.000000 0.750000
vt 0.146077 0.291398
vt 0.250000 0.231398
vt 0.353923 0.291398
vt 0.250000 0.471398
vt 1.000000 0.750000
vt 1.000000 1.000000
vt 0.828125 1.000000
vt 0.828125 0.750000
vt 0.828125 1.000000
vt 0.828125 0.750000
vt 0.671875 0.750000
vt 0.671875 1.000000
vt 1.000000 1.000000
vt 1.000000 0.750000
vt 0.605613 0.271364
vt 0.501903 0.091733
vt 0.398193 0.271364
vt 0.501903 0.331241
vn -0.8660 0.0000 -0.5000
vn 0.0000 1.0000 -0.0000
vn 0.8660 -0.0000 -0.5000
vn -0.5000 0.0000 0.8660
vn 0.5000 -0.0000 0.8660
vn 0.0000 -1.0000 0.0000
usemtl None
s off
f 6/1/1 3/2/1 1/3/1 4/4/1
f 3/5/2 5/6/2 2/7/2 1/8/2
f 4/9/3 1/10/3 2/11/3 7/12/3
f 3/13/4 6/14/4 8/15/4 5/16/4
f 5/17/5 8/18/5 7/12/5 2/11/5
f 6/19/6 4/20/6 7/21/6 8/22/6
