# Blender v3.2.0 Beta OBJ File: 'becoming_hex_tiles2.blend'
# www.blender.org
mtllib tile_010_011.mtl
o tile_010_011_Cylinder.042
v 0.000000 0.500000 -1.000000
v 0.866025 -0.500000 0.500000
v 0.866025 0.500000 0.500000
v 0.433013 -0.500000 -0.250000
v 0.433013 0.500000 -0.250000
v -0.000000 -0.500000 0.500000
v 0.000000 0.500000 0.500000
v -0.433013 0.500000 -0.250000
v 0.000000 0.000000 -1.000000
v -0.000000 0.500000 -0.000000
v 0.866025 0.000000 0.500000
v -0.433013 0.000000 -0.250000
v -0.000000 -0.500000 -0.000000
v 0.433013 0.000000 -0.250000
v -0.000000 0.000000 0.500000
v -0.000000 0.000000 -0.000000
vt 0.828125 0.750000
vt 0.828125 1.000000
vt 0.671875 1.000000
vt 0.671875 0.750000
vt 0.171875 0.750000
vt 0.171875 1.000000
vt -0.000000 1.000000
vt -0.000000 0.750000
vt 0.750000 0.111398
vt 0.750000 0.231398
vt 0.853923 0.291398
vt 0.957846 0.111398
vt 0.146077 0.291398
vt 0.250000 0.231398
vt 0.353923 0.291398
vt 0.250000 0.471398
vt 0.500000 1.000000
vt 0.500000 0.750000
vt 1.000000 0.750000
vt 1.000000 1.000000
vt 0.250000 0.111398
vt 0.457846 0.111398
vt 0.671875 0.500000
vt 0.500000 0.500000
vt 0.828125 0.500000
vt 1.000000 0.500000
vt 1.000000 0.750000
vt 0.671875 0.750000
vt 0.671875 0.500000
vt 0.671875 1.000000
vt 0.828125 1.000000
vt 0.828125 0.750000
vt 0.605613 0.271364
vt 0.501903 0.091733
vt 0.398193 0.271364
vt 0.501903 0.331241
vn 0.8660 0.0000 -0.5000
vn -0.8660 0.0000 -0.5000
vn 0.0000 -1.0000 -0.0000
vn 0.0000 1.0000 -0.0000
vn -0.0000 0.0000 1.0000
vn -0.5000 0.0000 -0.8660
vn -1.0000 0.0000 -0.0000
vn -0.5000 0.0000 0.8660
usemtl None
s off
f 14/1/1 5/2/1 3/3/1 11/4/1
f 12/5/2 8/6/2 1/7/2 9/8/2
f 6/9/3 13/10/3 4/11/3 2/12/3
f 8/13/4 10/14/4 5/15/4 1/16/4
f 11/4/5 3/3/5 7/17/5 15/18/5
f 9/19/1 1/20/1 5/2/1 14/1/1
f 7/21/4 3/22/4 5/15/4 10/14/4
f 2/23/5 11/4/5 15/18/5 6/24/5
f 4/25/1 14/1/1 11/4/1 2/23/1
f 14/1/6 4/25/6 13/26/6 16/27/6
f 16/28/7 13/29/7 6/24/7 15/18/7
f 10/30/7 16/28/7 15/18/7 7/17/7
f 8/31/8 12/32/8 16/28/8 10/30/8
f 12/33/3 9/34/3 14/35/3 16/36/3
