# Blender v3.2.0 Beta OBJ File: 'becoming_hex_tiles2.blend'
# www.blender.org
mtllib tile_000_101.mtl
o tile_000_101_Cylinder.012
v 0.000000 0.500000 -1.000000
v -0.866025 0.500000 0.500000
v 0.433013 0.500000 -0.250000
v 0.000000 0.500000 0.500000
v -0.433013 0.500000 -0.250000
v 0.000000 0.000000 -1.000000
v -0.000000 0.500000 -0.000000
v -0.866025 0.000000 0.500000
v -0.433013 0.000000 -0.250000
v 0.433013 0.000000 -0.250000
v -0.000000 0.000000 0.500000
v -0.000000 0.000000 -0.000000
vt 0.500000 0.750000
vt 0.500000 1.000000
vt 0.328125 1.000000
vt 0.328125 0.750000
vt 0.171875 0.750000
vt 0.171875 1.000000
vt -0.000000 1.000000
vt -0.000000 0.750000
vt 0.146077 0.291398
vt 0.250000 0.231398
vt 0.353923 0.291398
vt 0.250000 0.471398
vt 1.000000 0.750000
vt 1.000000 1.000000
vt 0.828125 1.000000
vt 0.828125 0.750000
vt 0.250000 0.111398
vt 0.042154 0.111398
vt 0.671875 1.000000
vt 0.671875 0.750000
vt 1.000000 1.000000
vt 1.000000 0.750000
vt 0.501903 0.331241
vt 0.501903 0.450996
vt 0.709323 0.450996
vt 0.605613 0.271364
vt 0.501903 0.091733
vt 0.398193 0.271364
vn -0.0000 0.0000 1.0000
vn -0.8660 0.0000 -0.5000
vn 0.0000 1.0000 -0.0000
vn 0.8660 -0.0000 -0.5000
vn 1.0000 -0.0000 -0.0000
vn 0.5000 -0.0000 0.8660
vn 0.0000 -1.0000 0.0000
usemtl None
s off
f 11/1/1 4/2/1 2/3/1 8/4/1
f 9/5/2 5/6/2 1/7/2 6/8/2
f 8/4/2 2/3/2 5/6/2 9/5/2
f 5/9/3 7/10/3 3/11/3 1/12/3
f 6/13/4 1/14/4 3/15/4 10/16/4
f 4/17/3 7/10/3 5/9/3 2/18/3
f 7/19/5 4/2/5 11/1/5 12/20/5
f 7/21/6 12/22/6 10/16/6 3/15/6
f 12/23/7 11/24/7 8/25/7 9/26/7
f 9/26/7 6/27/7 10/28/7 12/23/7
