# Blender v3.2.0 Beta OBJ File: 'becoming_hex_tiles2.blend'
# www.blender.org
mtllib tile_010_111.mtl
o tile_010_111_Cylinder.049
v 0.000000 0.500000 -1.000000
v 0.866025 -0.500000 0.500000
v 0.866025 0.500000 0.500000
v -0.866025 0.500000 0.500000
v 0.433013 -0.500000 -0.250000
v 0.433013 0.500000 -0.250000
v -0.000000 -0.500000 0.500000
v 0.000000 0.500000 0.500000
v -0.433013 0.500000 -0.250000
v 0.000000 0.000000 -1.000000
v -0.000000 0.500000 -0.000000
v 0.866025 0.000000 0.500000
v -0.866025 0.000000 0.500000
v -0.433013 0.000000 -0.250000
v -0.000000 -0.500000 -0.000000
v 0.433013 0.000000 -0.250000
v -0.000000 0.000000 0.500000
v -0.000000 0.000000 -0.000000
vt 0.828125 0.750000
vt 0.828125 1.000000
vt 0.671875 1.000000
vt 0.671875 0.750000
vt 0.500000 0.750000
vt 0.500000 1.000000
vt 0.328125 1.000000
vt 0.328125 0.750000
vt 0.171875 0.750000
vt 0.171875 1.000000
vt -0.000000 1.000000
vt -0.000000 0.750000
vt 0.750000 0.111398
vt 0.750000 0.231398
vt 0.853923 0.291398
vt 0.957846 0.111398
vt 0.146077 0.291398
vt 0.250000 0.231398
vt 0.353923 0.291398
vt 0.250000 0.471398
vt 1.000000 0.750000
vt 1.000000 1.000000
vt 0.250000 0.111398
vt 0.457846 0.111398
vt 0.671875 0.500000
vt 0.500000 0.500000
vt 0.042154 0.111398
vt 0.828125 0.500000
vt 1.000000 0.750000
vt 1.000000 0.500000
vt 0.671875 0.750000
vt 0.671875 0.500000
vt 0.501903 0.331241
vt 0.501903 0.450996
vt 0.709323 0.450996
vt 0.605613 0.271364
vt 0.501903 0.091733
vt 0.398193 0.271364
vn 0.8660 0.0000 -0.5000
vn -0.0000 0.0000 1.0000
vn -0.8660 0.0000 -0.5000
vn 0.0000 -1.0000 -0.0000
vn 0.0000 1.0000 -0.0000
vn 0.5000 -0.0000 0.8660
vn 1.0000 -0.0000 0.0000
usemtl None
s off
f 16/1/1 6/2/1 3/3/1 12/4/1
f 17/5/2 8/6/2 4/7/2 13/8/2
f 14/9/3 9/10/3 1/11/3 10/12/3
f 7/13/4 15/14/4 5/15/4 2/16/4
f 13/8/3 4/7/3 9/10/3 14/9/3
f 9/17/5 11/18/5 6/19/5 1/20/5
f 12/4/2 3/3/2 8/6/2 17/5/2
f 10/21/1 1/22/1 6/2/1 16/1/1
f 8/23/5 3/24/5 6/19/5 11/18/5
f 2/25/2 12/4/2 17/5/2 7/26/2
f 8/23/5 11/18/5 9/17/5 4/27/5
f 5/28/1 16/1/1 12/4/1 2/25/1
f 16/1/6 18/29/6 15/30/6 5/28/6
f 18/31/7 17/5/7 7/26/7 15/32/7
f 18/33/4 17/34/4 13/35/4 14/36/4
f 14/36/4 10/37/4 16/38/4 18/33/4
