# Blender v3.2.0 Beta OBJ File: 'becoming_hex_tiles2.blend'
# www.blender.org
mtllib tile_010_000.mtl
o tile_010_000_Cylinder.003
v 0.866025 -0.500000 0.500000
v 0.433013 -0.500000 -0.250000
v -0.000000 -0.500000 0.500000
v 0.866025 0.000000 0.500000
v -0.000000 -0.500000 -0.000000
v 0.433013 0.000000 -0.250000
v -0.000000 0.000000 0.500000
v -0.000000 0.000000 -0.000000
vt 0.750000 0.111398
vt 0.750000 0.231398
vt 0.853923 0.291398
vt 0.957846 0.111398
vt 0.671875 0.500000
vt 0.671875 0.750000
vt 0.500000 0.750000
vt 0.500000 0.500000
vt 0.828125 0.500000
vt 0.828125 0.750000
vt 1.000000 0.500000
vt 1.000000 0.750000
vt 0.671875 0.750000
vt 0.671875 0.500000
vt 0.398193 0.271364
vt 0.501903 0.331241
vt 0.501903 0.450996
vt 0.294482 0.450996
vn 0.0000 -1.0000 -0.0000
vn -0.0000 0.0000 1.0000
vn 0.8660 0.0000 -0.5000
vn -0.5000 0.0000 -0.8660
vn -1.0000 0.0000 -0.0000
vn 0.0000 1.0000 0.0000
usemtl None
s off
f 3/1/1 5/2/1 2/3/1 1/4/1
f 1/5/2 4/6/2 7/7/2 3/8/2
f 2/9/3 6/10/3 4/6/3 1/5/3
f 6/10/4 2/9/4 5/11/4 8/12/4
f 8/13/5 5/14/5 3/8/5 7/7/5
f 6/15/6 8/16/6 7/17/6 4/18/6
