# Blender v3.2.0 Beta OBJ File: 'becoming_hex_tiles2.blend'
# www.blender.org
mtllib tile_000_110.mtl
o tile_000_110_Cylinder.011
v 0.866025 0.500000 0.500000
v -0.866025 0.500000 0.500000
v 0.433013 0.500000 -0.250000
v 0.000000 0.500000 0.500000
v -0.433013 0.500000 -0.250000
v -0.000000 0.500000 -0.000000
v 0.866025 0.000000 0.500000
v -0.866025 0.000000 0.500000
v -0.433013 0.000000 -0.250000
v 0.433013 0.000000 -0.250000
v -0.000000 0.000000 0.500000
v -0.000000 0.000000 -0.000000
vt 0.828125 0.750000
vt 0.828125 1.000000
vt 0.671875 1.000000
vt 0.671875 0.750000
vt 0.500000 0.750000
vt 0.500000 1.000000
vt 0.328125 1.000000
vt 0.328125 0.750000
vt 0.171875 1.000000
vt 0.171875 0.750000
vt 0.250000 0.111398
vt 0.457846 0.111398
vt 0.353923 0.291398
vt 0.250000 0.231398
vt 0.146077 0.291398
vt 0.042154 0.111398
vt 0.828125 1.000000
vt 0.671875 1.000000
vt 0.671875 0.750000
vt 0.828125 0.750000
vt 1.000000 1.000000
vt 1.000000 0.750000
vt 0.501903 0.331241
vt 0.501903 0.450996
vt 0.709323 0.450996
vt 0.605613 0.271364
vt 0.398193 0.271364
vt 0.294482 0.450996
vn 0.8660 0.0000 -0.5000
vn -0.0000 0.0000 1.0000
vn -0.8660 0.0000 -0.5000
vn 0.0000 1.0000 0.0000
vn 0.5000 -0.0000 -0.8660
vn -0.5000 0.0000 -0.8660
vn 0.0000 -1.0000 0.0000
usemtl None
s off
f 10/1/1 3/2/1 1/3/1 7/4/1
f 11/5/2 4/6/2 2/7/2 8/8/2
f 8/8/3 2/7/3 5/9/3 9/10/3
f 7/4/2 1/3/2 4/6/2 11/5/2
f 4/11/4 1/12/4 3/13/4 6/14/4
f 4/11/4 6/14/4 5/15/4 2/16/4
f 5/17/5 6/18/5 12/19/5 9/20/5
f 6/21/6 3/2/6 10/1/6 12/22/6
f 12/23/7 11/24/7 8/25/7 9/26/7
f 10/27/7 7/28/7 11/24/7 12/23/7
