# Blender v3.2.0 Beta OBJ File: 'becoming_debug.blend'
# www.blender.org
mtllib axes.mtl
o Cube_Cube.001
v -0.025000 -0.025000 -0.200000
v -0.025000 0.025000 -0.200000
v -0.025000 -0.025000 -0.700000
v -0.025000 0.025000 -0.700000
v 0.025000 -0.025000 -0.200000
v 0.025000 0.025000 -0.200000
v 0.025000 -0.025000 -0.700000
v 0.025000 0.025000 -0.700000
v -0.050000 -0.050000 -0.700000
v -0.050000 0.050000 -0.700000
v -0.006250 -0.006250 -1.000000
v -0.006250 0.006250 -1.000000
v 0.050000 -0.050000 -0.700000
v 0.050000 0.050000 -0.700000
v 0.006250 -0.006250 -1.000000
v 0.006250 0.006250 -1.000000
v 0.200000 -0.025000 -0.025000
v 0.200000 0.025000 -0.025000
v 0.700000 -0.025000 -0.025000
v 0.700000 0.025000 -0.025000
v 0.200000 -0.025000 0.025000
v 0.200000 0.025000 0.025000
v 0.700000 -0.025000 0.025000
v 0.700000 0.025000 0.025000
v 0.700000 -0.050000 -0.050000
v 0.700000 0.050000 -0.050000
v 1.000000 -0.006250 -0.006250
v 1.000000 0.006250 -0.006250
v 0.700000 -0.050000 0.050000
v 0.700000 0.050000 0.050000
v 1.000000 -0.006250 0.006250
v 1.000000 0.006250 0.006250
v 0.025000 0.200000 -0.025000
v -0.025000 0.200000 -0.025000
v 0.025000 0.700000 -0.025000
v -0.025000 0.700000 -0.025000
v 0.025000 0.200000 0.025000
v -0.025000 0.200000 0.025000
v 0.025000 0.700000 0.025000
v -0.025000 0.700000 0.025000
v 0.050000 0.700000 -0.050000
v -0.050000 0.700000 -0.050000
v 0.006250 1.000000 -0.006250
v -0.006250 1.000000 -0.006250
v 0.050000 0.700000 0.050000
v -0.050000 0.700000 0.050000
v 0.006250 1.000000 0.006250
v -0.006250 1.000000 0.006250
v -0.050000 -0.100000 0.050000
v -0.050000 -0.050000 0.100000
v -0.100000 -0.050000 0.050000
v -0.050000 0.050000 0.100000
v -0.050000 0.100000 0.050000
v -0.100000 0.050000 0.050000
v -0.050000 -0.100000 -0.050000
v -0.100000 -0.050000 -0.050000
v -0.050000 -0.050000 -0.100000
v -0.050000 0.100000 -0.050000
v -0.050000 0.050000 -0.100000
v -0.100000 0.050000 -0.050000
v 0.050000 -0.100000 0.050000
v 0.100000 -0.050000 0.050000
v 0.050000 -0.050000 0.100000
v 0.050000 0.100000 0.050000
v 0.050000 0.050000 0.100000
v 0.100000 0.050000 0.050000
v 0.050000 -0.100000 -0.050000
v 0.050000 -0.050000 -0.100000
v 0.100000 -0.050000 -0.050000
v 0.050000 0.100000 -0.050000
v 0.100000 0.050000 -0.050000
v 0.050000 0.050000 -0.100000
vt 0.231553 0.774720
vt 0.281212 0.774720
vt 0.281212 0.824380
vt 0.231553 0.824380
vt 0.281212 0.874039
vt 0.231553 0.874039
vt 0.281212 0.923698
vt 0.231553 0.923698
vt 0.281212 0.973358
vt 0.231553 0.973358
vt 0.181893 0.874039
vt 0.181893 0.923698
vt 0.330872 0.874039
vt 0.330872 0.923698
vt 0.231553 0.774720
vt 0.281212 0.774720
vt 0.281212 0.824380
vt 0.231553 0.824380
vt 0.281212 0.874039
vt 0.231553 0.874039
vt 0.281212 0.923698
vt 0.231553 0.923698
vt 0.281212 0.973358
vt 0.231553 0.973358
vt 0.181893 0.874039
vt 0.181893 0.923698
vt 0.330872 0.874039
vt 0.330872 0.923698
vt 0.848093 0.174745
vt 0.885220 0.174745
vt 0.885220 0.211873
vt 0.848093 0.211873
vt 0.885220 0.249000
vt 0.848093 0.249000
vt 0.885220 0.286128
vt 0.848093 0.286128
vt 0.885220 0.323255
vt 0.848093 0.323255
vt 0.810965 0.249000
vt 0.810965 0.286128
vt 0.922348 0.249000
vt 0.922348 0.286128
vt 0.848093 0.174745
vt 0.885220 0.174745
vt 0.885220 0.211873
vt 0.848093 0.211873
vt 0.885220 0.249000
vt 0.848093 0.249000
vt 0.885220 0.286128
vt 0.848093 0.286128
vt 0.885220 0.323255
vt 0.848093 0.323255
vt 0.810965 0.249000
vt 0.810965 0.286128
vt 0.922348 0.249000
vt 0.922348 0.286128
vt 0.725299 0.788462
vt 0.766857 0.788462
vt 0.766857 0.830020
vt 0.725299 0.830020
vt 0.766857 0.871578
vt 0.725299 0.871578
vt 0.766857 0.913136
vt 0.725299 0.913136
vt 0.766857 0.954695
vt 0.725299 0.954695
vt 0.683741 0.871578
vt 0.683741 0.913136
vt 0.808416 0.871578
vt 0.808416 0.913136
vt 0.725299 0.788462
vt 0.766857 0.788462
vt 0.766857 0.830020
vt 0.725299 0.830020
vt 0.766857 0.871578
vt 0.725299 0.871578
vt 0.766857 0.913136
vt 0.725299 0.913136
vt 0.766857 0.954695
vt 0.725299 0.954695
vt 0.683741 0.871578
vt 0.683741 0.913136
vt 0.808416 0.871578
vt 0.808416 0.913136
vt 0.110114 0.424820
vt 0.127248 0.424820
vt 0.127248 0.441954
vt 0.110114 0.441954
vt 0.110114 0.390552
vt 0.127248 0.390552
vt 0.127248 0.407686
vt 0.110114 0.407686
vt 0.144382 0.390552
vt 0.161516 0.390552
vt 0.161516 0.407686
vt 0.144382 0.407686
vt 0.110114 0.322015
vt 0.127248 0.322015
vt 0.127248 0.339149
vt 0.110114 0.339149
vt 0.110114 0.356283
vt 0.127248 0.356283
vt 0.127248 0.373418
vt 0.110114 0.373418
vt 0.075846 0.407686
vt 0.075846 0.416253
vt 0.067279 0.407686
vt 0.127248 0.313448
vt 0.135815 0.322015
vt 0.075846 0.390552
vt 0.067279 0.390552
vt 0.075846 0.381985
vt 0.135815 0.339149
vt 0.127248 0.347716
vt 0.092980 0.407686
vt 0.101547 0.407686
vt 0.092980 0.416253
vt 0.135815 0.424820
vt 0.127248 0.416253
vt 0.092980 0.390552
vt 0.092980 0.381985
vt 0.101547 0.390552
vt 0.135815 0.373418
vt 0.127248 0.381985
vt 0.110114 0.313448
vt 0.135815 0.356283
vt 0.135815 0.441954
vn -1.0000 0.0000 0.0000
vn 0.0000 0.0000 -1.0000
vn 1.0000 0.0000 0.0000
vn 0.0000 0.0000 1.0000
vn 0.0000 -1.0000 0.0000
vn 0.0000 1.0000 0.0000
vn -0.9895 0.0000 -0.1443
vn 0.9895 0.0000 -0.1443
vn 0.0000 -0.9895 -0.1443
vn 0.0000 0.9895 -0.1443
vn 0.1443 0.0000 -0.9895
vn 0.1443 0.0000 0.9895
vn 0.1443 -0.9895 0.0000
vn 0.1443 0.9895 0.0000
vn 0.0000 0.1443 -0.9895
vn -0.0000 0.1443 0.9895
vn 0.9895 0.1443 0.0000
vn -0.9895 0.1443 0.0000
vn -0.5774 -0.5774 0.5774
vn -0.5774 0.5774 0.5774
vn -0.5774 -0.5774 -0.5774
vn -0.5774 0.5774 -0.5774
vn 0.5774 -0.5774 0.5774
vn 0.5774 0.5774 0.5774
vn 0.5774 -0.5774 -0.5774
vn 0.5774 0.5774 -0.5774
vn -0.7071 -0.7071 0.0000
vn -0.7071 0.0000 0.7071
vn -0.7071 0.7071 0.0000
vn -0.7071 0.0000 -0.7071
vn 0.0000 -0.7071 -0.7071
vn 0.0000 0.7071 -0.7071
vn 0.7071 0.0000 -0.7071
vn 0.7071 -0.7071 0.0000
vn 0.7071 0.7071 0.0000
vn 0.7071 0.0000 0.7071
vn 0.0000 -0.7071 0.7071
vn 0.0000 0.7071 0.7071
usemtl axes_mtl
s off
f 1/1/1 2/2/1 4/3/1 3/4/1
f 3/4/2 4/3/2 8/5/2 7/6/2
f 7/6/3 8/5/3 6/7/3 5/8/3
f 5/8/4 6/7/4 2/9/4 1/10/4
f 3/11/5 7/6/5 5/8/5 1/12/5
f 8/5/6 4/13/6 2/14/6 6/7/6
f 9/15/7 10/16/7 12/17/7 11/18/7
f 11/18/2 12/17/2 16/19/2 15/20/2
f 15/20/8 16/19/8 14/21/8 13/22/8
f 13/22/4 14/21/4 10/23/4 9/24/4
f 11/25/9 15/20/9 13/22/9 9/26/9
f 16/19/10 12/27/10 10/28/10 14/21/10
f 17/29/2 18/30/2 20/31/2 19/32/2
f 19/32/3 20/31/3 24/33/3 23/34/3
f 23/34/4 24/33/4 22/35/4 21/36/4
f 21/36/1 22/35/1 18/37/1 17/38/1
f 19/39/5 23/34/5 21/36/5 17/40/5
f 24/33/6 20/41/6 18/42/6 22/35/6
f 25/43/11 26/44/11 28/45/11 27/46/11
f 27/46/3 28/45/3 32/47/3 31/48/3
f 31/48/12 32/47/12 30/49/12 29/50/12
f 29/50/1 30/49/1 26/51/1 25/52/1
f 27/53/13 31/48/13 29/50/13 25/54/13
f 32/47/14 28/55/14 26/56/14 30/49/14
f 33/57/2 34/58/2 36/59/2 35/60/2
f 35/60/6 36/59/6 40/61/6 39/62/6
f 39/62/4 40/61/4 38/63/4 37/64/4
f 37/64/5 38/63/5 34/65/5 33/66/5
f 35/67/3 39/62/3 37/64/3 33/68/3
f 40/61/1 36/69/1 34/70/1 38/63/1
f 41/71/15 42/72/15 44/73/15 43/74/15
f 43/74/6 44/73/6 48/75/6 47/76/6
f 47/76/16 48/75/16 46/77/16 45/78/16
f 45/78/5 46/77/5 42/79/5 41/80/5
f 43/81/17 47/76/17 45/78/17 41/82/17
f 48/75/18 44/83/18 42/84/18 46/77/18
f 63/85/4 65/86/4 52/87/4 50/88/4
f 69/89/3 71/90/3 66/91/3 62/92/3
f 70/93/6 58/94/6 53/95/6 64/96/6
f 51/97/1 54/98/1 60/99/1 56/100/1
f 57/101/2 59/102/2 72/103/2 68/104/2
f 49/105/19 50/106/19 51/107/19
f 52/108/20 53/109/20 54/98/20
f 55/110/21 56/111/21 57/112/21
f 58/113/22 59/114/22 60/99/22
f 61/115/23 62/116/23 63/117/23
f 64/118/24 65/86/24 66/119/24
f 67/120/25 68/121/25 69/122/25
f 70/123/26 71/124/26 72/103/26
f 55/110/27 49/105/27 51/107/27 56/111/27
f 50/125/28 52/108/28 54/98/28 51/97/28
f 53/109/29 58/113/29 60/99/29 54/98/29
f 59/102/30 57/101/30 56/100/30 60/99/30
f 67/120/31 55/110/31 57/112/31 68/121/31
f 58/126/32 70/123/32 72/103/32 59/102/32
f 71/90/33 69/89/33 68/104/33 72/103/33
f 61/115/34 67/120/34 69/89/34 62/92/34
f 70/93/35 64/96/35 66/91/35 71/90/35
f 65/86/36 63/85/36 62/92/36 66/91/36
f 49/105/37 61/115/37 63/117/37 50/106/37
f 64/118/38 53/127/38 52/87/38 65/86/38
f 55/110/5 67/120/5 61/115/5 49/105/5
